<svg width="24" height="24" viewBox="0 0 24 24" fill="none" xmlns="http://www.w3.org/2000/svg">
<path d="M19.4881 9.69004V7.64404L11.9782 10.2004V16.334L17.4846 14.4596V16.5056L11.9782 18.38L6.47187 16.5056V8.32604L4.46838 7.64404V17.8696L11.9782 20.426L19.4881 17.8696V11.7316L13.9817 13.6104V11.5644L19.4881 9.69004Z" fill="white"/>
<path d="M11.9782 4.07129L4.46838 6.62769L11.9782 9.18409L19.4881 6.62769L11.9782 4.07129Z" fill="white"/>
<path d="M20.9918 18.8948V5.60245L11.9783 2.53564L2.96472 5.60245V18.8948L11.9783 21.9616L20.9918 18.8948ZM3.46883 5.94125L11.9783 3.04164L20.4877 5.94125V18.5516L11.9783 21.4512L3.46883 18.5516V5.94125Z" fill="white"/>
</svg>
